<svg width="82" height="100" viewBox="0 0 82 100" fill="none" xmlns="http://www.w3.org/2000/svg">
<path fill-rule="evenodd" clip-rule="evenodd" d="M10 1H72C76.9706 1 81 5.02944 81 10V90C81 94.9706 76.9706 99 72 99H10C5.02944 99 1 94.9706 1 90V10C1 5.02944 5.02944 1 10 1ZM0 10C0 4.47716 4.47715 0 10 0H72C77.5229 0 82 4.47715 82 10V90C82 95.5228 77.5229 100 72 100H10C4.47715 100 0 95.5229 0 90V10ZM27.3678 8.53027C25.8896 7.12714 23.8847 6.33887 21.7941 6.33887C19.7036 6.33887 17.6987 7.12714 16.2205 8.53027C14.7422 9.9334 13.9118 11.8365 13.9118 13.8208C13.9118 15.8051 14.7422 17.7082 16.2205 19.1113C17.6987 20.5144 19.7036 21.3027 21.7941 21.3027C23.8847 21.3027 25.8896 20.5144 27.3678 19.1113C28.846 17.7082 29.6765 15.8051 29.6765 13.8208C29.6765 11.8365 28.846 9.9334 27.3678 8.53027ZM33.2796 27.235C31.8013 25.8319 29.7964 25.0436 27.7059 25.0436H15.8824C13.7918 25.0436 11.7869 25.8319 10.3087 27.235C8.83047 28.6382 8.00002 30.5412 8.00002 32.5256V53.1008H13.9118V81.158H29.6765V53.1008H35.5882V32.5256C35.5882 30.5412 34.7578 28.6382 33.2796 27.235ZM62.8384 8.53027C61.3602 7.12714 59.3553 6.33887 57.2647 6.33887C55.1742 6.33887 53.1693 7.12714 51.6911 8.53027C50.2128 9.9334 49.3824 11.8365 49.3824 13.8208C49.3824 15.8051 50.2128 17.7082 51.6911 19.1113C53.1693 20.5144 55.1742 21.3027 57.2647 21.3027C59.3553 21.3027 61.3602 20.5144 62.8384 19.1113C64.3166 17.7082 65.1471 15.8051 65.1471 13.8208C65.1471 11.8365 64.3166 9.9334 62.8384 8.53027ZM51.353 58.7122V81.158H63.1765V58.7122H75L64.7924 30.3184C63.8071 27.2508 60.8118 25.0436 57.2647 25.0436C53.7177 25.0436 50.7224 27.2508 49.7371 30.3184L39.5294 58.7122H51.353Z" fill="#084482"/>
</svg>
