<svg width="81" height="100" viewBox="0 0 81 100" fill="none" xmlns="http://www.w3.org/2000/svg">
<path fill-rule="evenodd" clip-rule="evenodd" d="M10 1H71C75.9706 1 80 5.02944 80 10V90C80 94.9706 75.9706 99 71 99H10C5.02944 99 1 94.9706 1 90V10C1 5.02944 5.02944 1 10 1ZM0 10C0 4.47716 4.47715 0 10 0H71C76.5229 0 81 4.47715 81 10V90C81 95.5228 76.5229 100 71 100H10C4.47715 100 0 95.5229 0 90V10ZM68.1145 59.5317L61.2003 52.2279L40.7277 73.8186V81.158H47.6756L68.1145 59.5317ZM69.1263 46.5987C68.7553 46.2068 68.3169 45.993 67.8447 45.993C67.3725 45.993 66.9003 46.2068 66.5293 46.5987L63.1565 50.1615L70.0707 57.4652L73.4435 53.9024C74.1855 53.1542 74.1855 51.9073 73.4435 51.1591L69.1263 46.5987ZM47.4732 31.2786H67.7098V24.1529H7V31.2786H27.2366V77.5951H33.9821V56.2183H40.7277V63.3439L47.4732 56.2183V31.2786ZM44.1004 13.4645C44.1004 9.5454 41.0649 6.33887 37.3549 6.33887C33.6448 6.33887 30.6094 9.5454 30.6094 13.4645C30.6094 17.3836 33.6448 20.5901 37.3549 20.5901C41.0649 20.5901 44.1004 17.3836 44.1004 13.4645Z" fill="#084482"/>
</svg>
