<svg width="82" height="100" viewBox="0 0 82 100" fill="none" xmlns="http://www.w3.org/2000/svg">
<path fill-rule="evenodd" clip-rule="evenodd" d="M10 1H72C76.9706 1 81 5.02944 81 10V90C81 94.9706 76.9706 99 72 99H10C5.02944 99 1 94.9706 1 90V10C1 5.02944 5.02944 1 10 1ZM0 10C0 4.47716 4.47715 0 10 0H72C77.5229 0 82 4.47715 82 10V90C82 95.5228 77.5229 100 72 100H10C4.47715 100 0 95.5229 0 90V10ZM30.2857 27.9759C21.5714 23.5675 16 14.2187 16 3.95776H23.1429C23.1429 8.99733 25.0242 13.8305 28.3731 17.394C31.722 20.9575 36.264 22.9595 41 22.9595C43.345 22.9595 45.6671 22.468 47.8336 21.513C50.0002 20.5581 51.9687 19.1585 53.6269 17.394C56.9758 13.8305 58.8571 8.99733 58.8571 3.95776H66C66 14.2187 60.4286 23.5675 51.7143 27.9379V83.7649H44.5714V57.1625H37.4286V83.7649H30.2857V27.9759ZM33.8571 11.5584C33.8571 7.34007 37.0357 3.95776 41 3.95776C44.9643 3.95776 48.1429 7.34007 48.1429 11.5584C48.1429 15.7768 44.9643 19.1591 41 19.1591C37.0357 19.1591 33.8571 15.7768 33.8571 11.5584Z" fill="#084482"/>
</svg>
