<svg width="82" height="100" viewBox="0 0 82 100" fill="none" xmlns="http://www.w3.org/2000/svg">
<path fill-rule="evenodd" clip-rule="evenodd" d="M10 1H72C76.9706 1 81 5.02944 81 10V90C81 94.9706 76.9706 99 72 99H10C5.02944 99 1 94.9706 1 90V10C1 5.02944 5.02944 1 10 1ZM0 10C0 4.47716 4.47715 0 10 0H72C77.5229 0 82 4.47715 82 10V90C82 95.5228 77.5229 100 72 100H10C4.47715 100 0 95.5229 0 90V10ZM36.4619 8.03994C37.7981 6.70362 39.6103 5.95288 41.5 5.95288C43.3897 5.95288 45.2019 6.70362 46.5381 8.03994C47.8743 9.37625 48.625 11.1887 48.625 13.0785C48.625 17.0333 45.4544 20.2042 41.5 20.2042C37.5456 20.2042 34.375 17.0333 34.375 13.0785C34.375 11.1887 35.1257 9.37625 36.4619 8.03994ZM31.9169 24.7646C32.5938 24.1589 33.4131 23.767 34.375 23.767H48.625C49.5869 23.767 50.4062 24.1589 51.1187 24.7646L70 43.6832L64.9412 48.7068L52.1875 35.9162V80.7722H45.0625V55.8324H37.9375V80.7722H30.8125V35.9162L18.0588 48.7068L13 43.6832L31.8813 24.7646H31.9169Z" fill="#084482"/>
</svg>
