<svg width="82" height="100" viewBox="0 0 82 100" fill="none" xmlns="http://www.w3.org/2000/svg">
<path fill-rule="evenodd" clip-rule="evenodd" d="M9.99994 1H71.9999C76.9705 1 80.9999 5.02944 80.9999 10V90C80.9999 94.9706 76.9705 99 71.9999 99H9.99994C5.02938 99 0.999939 94.9706 0.999939 90V10C0.999939 5.02944 5.02938 1 9.99994 1ZM-6.10352e-05 10C-6.10352e-05 4.47716 4.47709 0 9.99994 0H71.9999C77.5228 0 81.9999 4.47715 81.9999 10V90C81.9999 95.5228 77.5228 100 71.9999 100H9.99994C4.47709 100 -6.10352e-05 95.5229 -6.10352e-05 90V10ZM27.3678 7.75853C25.8895 6.35541 23.8846 5.56714 21.7941 5.56714C19.7036 5.56714 17.6987 6.35541 16.2204 7.75853C14.7422 9.16166 13.9117 11.0647 13.9117 13.049C13.9117 15.0333 14.7422 16.9364 16.2204 18.3395C17.6987 19.7426 19.7036 20.5309 21.7941 20.5309C23.8846 20.5309 25.8895 19.7426 27.3678 18.3395C28.846 16.9364 29.6764 15.0333 29.6764 13.049C29.6764 11.0647 28.846 9.16166 27.3678 7.75853ZM33.2795 26.4632C31.8013 25.0601 29.7964 24.2719 27.7059 24.2719H15.8823C13.7918 24.2719 11.7869 25.0601 10.3087 26.4632C8.83043 27.8664 7.99997 29.7694 7.99997 31.7537V52.3289H13.9117V80.386H29.6764V52.3289H35.5882V31.7537C35.5882 29.7694 34.7577 27.8664 33.2795 26.4632ZM62.8383 7.75853C61.3601 6.35541 59.3552 5.56714 57.2647 5.56714C55.1741 5.56714 53.1692 6.35541 51.691 7.75853C50.2128 9.16166 49.3823 11.0647 49.3823 13.049C49.3823 15.0333 50.2128 16.9364 51.691 18.3395C53.1692 19.7426 55.1741 20.5309 57.2647 20.5309C59.3552 20.5309 61.3601 19.7426 62.8383 18.3395C64.3166 16.9364 65.147 15.0333 65.147 13.049C65.147 11.0647 64.3166 9.16166 62.8383 7.75853ZM51.3529 57.9403V80.386H63.1764V57.9403H75L64.7923 29.5466C63.807 26.479 60.8117 24.2719 57.2647 24.2719C53.7176 24.2719 50.7223 26.479 49.737 29.5466L39.5294 57.9403H51.3529Z" fill="#084482"/>
</svg>
